<svg viewBox="0 0 100 100" xmlns="http://www.w3.org/2000/svg">
  <defs>
    <linearGradient id="logoGradient" x1="0%" y1="0%" x2="100%" y2="100%">
      <stop offset="0%" stop-color="hsl(0, 84%, 65%)" />
      <stop offset="100%" stop-color="hsl(0, 84%, 50%)" />
    </linearGradient>
  </defs>
  <rect width="100" height="100" rx="20" fill="#0a0a0a"/>
  <path
    d="M25 15 C15 15 10 25 10 50 C10 75 15 85 25 85 L55 85 C75 85 90 70 90 50 C90 30 75 15 55 15 L40 15 L40 25 L55 25 C68 25 78 35 78 50 C78 65 68 75 55 75 L25 75 C22 75 22 70 22 50 C22 30 22 25 25 25 L25 15 Z M30 35 L30 65 L55 65 C60 65 65 60 65 50 C65 40 60 35 55 35 L30 35 Z"
    fill="url(#logoGradient)"
  />
</svg>
